<svg width="801" height="535" viewBox="0 0 801 535" fill="none" xmlns="http://www.w3.org/2000/svg">
<path fill-rule="evenodd" clip-rule="evenodd" d="M577.719 813.38C626.881 836.127 687.05 847.5 758.225 847.5C824.264 847.5 881.498 836.86 929.926 815.581C979.089 794.302 1016.88 764.584 1043.29 726.428C1069.71 687.539 1082.92 642.779 1082.92 592.149C1082.92 544.455 1070.81 503.73 1046.6 469.977C1023.11 436.224 989.728 409.442 946.436 389.63C903.144 369.818 852.881 357.711 795.647 353.308L725.206 346.704C685.582 343.769 656.598 333.13 638.254 314.786C619.91 295.708 610.738 273.695 610.738 248.747C610.738 228.201 615.874 209.123 626.147 191.513C636.42 173.903 651.829 159.961 672.374 149.688C692.92 139.416 718.602 134.279 749.42 134.279C781.706 134.279 808.121 140.149 828.667 151.89C849.946 162.896 865.722 177.938 875.994 197.016C887.001 215.36 892.504 235.539 892.504 257.552H1045.49C1045.49 205.455 1033.39 160.328 1009.17 122.172C984.959 83.2825 950.839 53.198 906.813 31.9188C862.787 10.6396 810.322 0 749.42 0C690.719 0 639.355 10.2727 595.329 30.8182C552.037 50.6299 518.283 79.2467 494.069 116.669C473.826 147.34 462.045 183.138 458.725 224.065C416.046 196.98 363.296 183.438 300.477 183.438C251.315 183.438 208.023 192.243 170.601 209.854C133.179 226.73 101.627 249.844 75.9448 279.194C50.9967 307.811 31.9188 340.831 18.711 378.253C6.23701 414.941 0 453.097 0 492.72V513.633C0 551.789 6.23701 589.211 18.711 625.899C31.9188 662.587 50.9967 695.974 75.9448 726.058C101.627 755.409 133.545 778.889 171.701 796.5C210.591 814.11 255.717 822.915 307.081 822.915C356.243 822.915 399.903 814.477 438.058 797.6C461.056 787.62 481.615 775.203 499.737 760.347C521.218 781.373 547.212 799.051 577.719 813.38ZM433.775 639.701C429.945 621.681 428.03 602.896 428.03 583.344H581.02C581.02 604.623 586.891 625.536 598.631 646.081C610.371 665.893 629.082 682.036 654.764 694.51C681.18 706.984 715.667 713.221 758.225 713.221C796.381 713.221 828.3 707.717 853.981 696.711C879.663 685.704 898.741 671.396 911.215 653.786C923.689 635.442 929.926 614.896 929.926 592.149C929.926 563.532 917.819 540.786 893.605 523.909C869.391 506.299 831.969 495.292 781.339 490.89L710.897 485.386C666.599 481.589 627.395 472.092 593.285 456.894C593.995 466.15 594.351 475.524 594.351 485.016V540.048H145.069C147.687 563.109 152.896 584.388 160.695 603.886C172.435 632.503 190.412 655.25 214.627 672.126C238.841 688.269 269.659 696.34 307.081 696.34C344.503 696.34 374.954 689.003 398.435 674.328C413.853 664.209 425.633 652.667 433.775 639.701ZM147.677 446.493H448.205C445.507 427.465 441.024 410.222 434.756 394.763C423.75 367.613 406.873 346.701 384.127 332.026C362.114 317.35 334.23 310.013 300.477 310.013C266.724 310.013 238.107 317.717 214.627 333.126C191.146 348.535 173.169 370.915 160.695 400.266C154.95 414.269 150.61 429.678 147.677 446.493Z" fill="white" fill-opacity="0.2"/>
</svg>
